<svg width="17" height="17" viewBox="0 0 17 17" fill="none" xmlns="http://www.w3.org/2000/svg">
<path d="M13.6884 0.60466C13.3334 0.60552 12.9822 0.676652 12.6549 0.813953C12.3276 0.951254 12.0307 1.15201 11.7813 1.40463L1.40405 11.7813L1.36336 11.9867L0.645424 15.596L0.440674 16.5594L1.40471 16.3547L5.01408 15.6367L5.21883 15.5954L15.5961 5.21875C15.8494 4.96985 16.0506 4.673 16.1879 4.34551C16.3252 4.01803 16.396 3.66648 16.396 3.31136C16.396 2.95625 16.3252 2.6047 16.1879 2.27721C16.0506 1.94973 15.8494 1.65287 15.5961 1.40397C15.3466 1.15139 15.0496 0.950714 14.7222 0.813524C14.3948 0.676334 14.0434 0.605347 13.6884 0.60466ZM13.6884 1.85547C14.0191 1.85547 14.3525 2.00641 14.6728 2.32732C15.3113 2.96519 15.3113 3.65754 14.6728 4.29607L14.2016 4.74691L12.2525 2.7985L12.704 2.32732C13.0249 2.00641 13.3576 1.85547 13.6884 1.85547ZM11.3305 3.72185L13.2782 5.67025L5.34221 13.6056C4.91377 12.7674 4.23168 12.0857 3.39314 11.6579L11.3305 3.72185ZM2.55314 12.7249C2.94154 12.8812 3.29434 13.1143 3.59037 13.4104C3.8864 13.7064 4.11954 14.0592 4.2758 14.4476L2.12199 14.8781L2.55314 12.7249Z" fill="white"/>
</svg>
