<svg width="17" height="28" viewBox="0 0 17 28" fill="none" xmlns="http://www.w3.org/2000/svg">
<path d="M15.8291 4.46175L6.64314 13.7464L15.8291 23.0747C16.0483 23.2973 16.2222 23.5613 16.3408 23.8518C16.4595 24.1422 16.5205 24.4533 16.5205 24.7674C16.5205 25.0814 16.4595 25.3922 16.3408 25.6821C16.2222 25.972 16.0483 26.2352 15.8291 26.4567C15.61 26.6783 15.3497 26.8538 15.0633 26.9733C14.777 27.0928 14.47 27.1539 14.16 27.1532C13.8501 27.1524 13.5431 27.0899 13.2567 26.969C12.9703 26.8481 12.7101 26.6714 12.4909 26.4488L1.62398 15.4135C1.4045 15.1911 1.23038 14.9271 1.11157 14.6367C0.992765 14.3462 0.931611 14.035 0.931611 13.7209C0.931611 13.4067 0.992765 13.0958 1.11157 12.806C1.23038 12.5161 1.4045 12.2529 1.62398 12.0315L12.4909 1.04784C12.71 0.826006 12.9701 0.650214 13.2565 0.53053C13.5429 0.410846 13.85 0.349619 14.16 0.350354C14.4701 0.35109 14.7771 0.413775 15.0635 0.534819C15.3499 0.655863 15.6101 0.83289 15.8291 1.05577C16.7288 1.99335 16.7525 3.52849 15.8291 4.46175Z" fill="#2C2C2C"/>
</svg>
