<svg width="21" height="23" viewBox="0 0 21 23" fill="none" xmlns="http://www.w3.org/2000/svg">
<g filter="url(#filter0_d)">
<path d="M9.54162 11.4042C8.38074 11.1637 7.35015 10.5016 6.64889 9.54572C5.94764 8.58984 5.62547 7.40801 5.74462 6.22849C5.86376 5.04897 6.41576 3.95544 7.29401 3.15911C8.17225 2.36277 9.31443 1.92013 10.4999 1.91667C11.6882 1.91548 12.8346 2.35586 13.7164 3.15232C14.5983 3.94879 15.1528 5.04451 15.2722 6.22678C15.3916 7.40905 15.0675 8.59352 14.3627 9.55025C13.6579 10.507 12.6228 11.1677 11.4583 11.4042V20.125C11.4583 20.3792 11.3573 20.6229 11.1776 20.8027C10.9979 20.9824 10.7541 21.0833 10.4999 21.0833C10.2458 21.0833 10.002 20.9824 9.82231 20.8027C9.64258 20.6229 9.54162 20.3792 9.54162 20.125V11.4042ZM10.4999 9.58334C10.8775 9.58334 11.2514 9.50898 11.6002 9.36449C11.949 9.22001 12.2659 9.00824 12.5329 8.74127C12.7998 8.4743 13.0116 8.15737 13.1561 7.80856C13.3006 7.45974 13.3749 7.08589 13.3749 6.70834C13.3749 6.33079 13.3006 5.95694 13.1561 5.60813C13.0116 5.25932 12.7998 4.94238 12.5329 4.67541C12.2659 4.40844 11.949 4.19667 11.6002 4.05219C11.2514 3.90771 10.8775 3.83334 10.4999 3.83334C9.73745 3.83334 9.00618 4.13624 8.46702 4.67541C7.92785 5.21458 7.62495 5.94584 7.62495 6.70834C7.62495 7.47084 7.92785 8.20211 8.46702 8.74127C9.00618 9.28044 9.73745 9.58334 10.4999 9.58334Z" fill="white"/>
<path d="M10.4997 1.66667L10.4992 1.66668C9.25187 1.67031 8.05013 2.13604 7.12608 2.9739C6.20203 3.81177 5.62124 4.96233 5.49588 6.20336C5.37053 7.4444 5.70949 8.68786 6.44732 9.69359C7.14476 10.6443 8.15182 11.3188 9.29162 11.6035V20.125C9.29162 20.4455 9.41892 20.7528 9.64553 20.9794C9.87213 21.206 10.1795 21.3333 10.4999 21.3333C10.8204 21.3333 11.1278 21.206 11.3544 20.9794C11.581 20.7528 11.7083 20.4455 11.7083 20.125V11.6043C12.8517 11.3232 13.8631 10.65 14.564 9.69853C15.3055 8.69188 15.6466 7.44561 15.5209 6.20166C15.3953 4.9577 14.8119 3.80481 13.884 2.96679C12.9561 2.12877 11.75 1.66542 10.4997 1.66667ZM11.5045 9.13352C11.186 9.26544 10.8447 9.33334 10.4999 9.33334C9.80376 9.33334 9.13608 9.05678 8.64379 8.5645C8.15151 8.07221 7.87495 7.40453 7.87495 6.70834C7.87495 6.01215 8.15151 5.34447 8.64379 4.85219C9.13608 4.3599 9.80376 4.08334 10.4999 4.08334C10.8447 4.08334 11.186 4.15124 11.5045 4.28316C11.823 4.41508 12.1123 4.60843 12.3561 4.85219C12.5999 5.09594 12.7932 5.38532 12.9251 5.7038C13.0571 6.02228 13.1249 6.36362 13.1249 6.70834C13.1249 7.05306 13.0571 7.39441 12.9251 7.71288C12.7932 8.03136 12.5999 8.32074 12.3561 8.5645C12.1123 8.80825 11.823 9.00161 11.5045 9.13352Z" stroke="white" stroke-width="0.5"/>
</g>
<defs>
<filter id="filter0_d" x="0.220337" y="-3.58333" width="20.5761" height="30.1667" filterUnits="userSpaceOnUse" color-interpolation-filters="sRGB">
<feFlood flood-opacity="0" result="BackgroundImageFix"/>
<feColorMatrix in="SourceAlpha" type="matrix" values="0 0 0 0 0 0 0 0 0 0 0 0 0 0 0 0 0 0 127 0"/>
<feOffset/>
<feGaussianBlur stdDeviation="2.5"/>
<feColorMatrix type="matrix" values="0 0 0 0 0.170833 0 0 0 0 0.170833 0 0 0 0 0.170833 0 0 0 1 0"/>
<feBlend mode="normal" in2="BackgroundImageFix" result="effect1_dropShadow"/>
<feBlend mode="normal" in="SourceGraphic" in2="effect1_dropShadow" result="shape"/>
</filter>
</defs>
</svg>
