<svg width="26" height="29" viewBox="0 0 26 29" fill="none" xmlns="http://www.w3.org/2000/svg">
<g filter="url(#filter0_d)">
<path d="M13 12.75C11.6739 12.75 10.4021 12.2232 9.46447 11.2855C8.52678 10.3479 8 9.07608 8 7.75C8 6.42392 8.52678 5.15215 9.46447 4.21447C10.4021 3.27678 11.6739 2.75 13 2.75C14.3261 2.75 15.5979 3.27678 16.5355 4.21447C17.4732 5.15215 18 6.42392 18 7.75C18 9.07608 17.4732 10.3479 16.5355 11.2855C15.5979 12.2232 14.3261 12.75 13 12.75Z" stroke="white" stroke-width="2" stroke-linecap="round"/>
<path d="M3 25.25V24C3 22.0109 3.79018 20.1032 5.1967 18.6967C6.60322 17.2902 8.51088 16.5 10.5 16.5H15.5C17.4891 16.5 19.3968 17.2902 20.8033 18.6967C22.2098 20.1032 23 22.0109 23 24V25.25" stroke="white" stroke-width="2" stroke-linecap="round"/>
</g>
<defs>
<filter id="filter0_d" x="0" y="0.75" width="26" height="28.5" filterUnits="userSpaceOnUse" color-interpolation-filters="sRGB">
<feFlood flood-opacity="0" result="BackgroundImageFix"/>
<feColorMatrix in="SourceAlpha" type="matrix" values="0 0 0 0 0 0 0 0 0 0 0 0 0 0 0 0 0 0 127 0"/>
<feOffset dy="1"/>
<feGaussianBlur stdDeviation="1"/>
<feColorMatrix type="matrix" values="0 0 0 0 0 0 0 0 0 0 0 0 0 0 0 0 0 0 0.25 0"/>
<feBlend mode="normal" in2="BackgroundImageFix" result="effect1_dropShadow"/>
<feBlend mode="normal" in="SourceGraphic" in2="effect1_dropShadow" result="shape"/>
</filter>
</defs>
</svg>
