<svg width="22" height="35" viewBox="0 0 22 35" fill="none" xmlns="http://www.w3.org/2000/svg">
<path d="M1.64405 29.2275L13.6074 17.2642L1.64405 5.30087C1.35859 5.0154 1.13215 4.67651 0.97766 4.30354C0.82317 3.93057 0.743652 3.53082 0.743652 3.12712C0.743652 2.72342 0.82317 2.32366 0.97766 1.95069C1.13215 1.57772 1.35859 1.23883 1.64405 0.953369C1.92951 0.667908 2.2684 0.441467 2.64137 0.286976C3.01435 0.132484 3.4141 0.0529709 3.8178 0.0529709C4.2215 0.0529709 4.62125 0.132484 4.99422 0.286976C5.3672 0.441467 5.70609 0.667908 5.99155 0.953369L20.144 15.1059C20.4299 15.3911 20.6567 15.7299 20.8114 16.1029C20.9661 16.4759 21.0457 16.8758 21.0457 17.2796C21.0457 17.6834 20.9661 18.0833 20.8114 18.4563C20.6567 18.8293 20.4299 19.1681 20.144 19.4534L5.99155 33.6059C5.7063 33.8917 5.36747 34.1185 4.99447 34.2732C4.62147 34.4279 4.22162 34.5076 3.8178 34.5076C3.41398 34.5076 3.01413 34.4279 2.64112 34.2732C2.26812 34.1185 1.9293 33.8917 1.64405 33.6059C0.472383 32.4034 0.44155 30.43 1.64405 29.2275Z" fill="white"/>
</svg>
