<svg width="16" height="16" viewBox="0 0 16 16" fill="none" xmlns="http://www.w3.org/2000/svg">
<mask id="path-1-inside-1" fill="white">
<path d="M6.33335 0.0833283C7.49833 0.0832814 8.64014 0.40884 9.62992 1.02326C10.6197 1.63769 11.4181 2.51652 11.9349 3.56058C12.4517 4.60464 12.6665 5.77238 12.5549 6.932C12.4433 8.09163 12.0098 9.19698 11.3034 10.1233L15.2559 14.0775C15.4053 14.2275 15.4921 14.4287 15.4985 14.6403C15.505 14.8519 15.4307 15.0581 15.2906 15.2169C15.1506 15.3757 14.9554 15.4752 14.7446 15.4953C14.5339 15.5154 14.3233 15.4545 14.1559 15.325L14.0775 15.2558L10.1234 11.3033C9.33418 11.9051 8.41307 12.3102 7.43622 12.4853C6.45937 12.6604 5.45487 12.6003 4.50585 12.3101C3.55683 12.0198 2.69056 11.5078 1.97873 10.8163C1.2669 10.1248 0.72997 9.27371 0.412373 8.33348C0.0947765 7.39326 0.00564218 6.39093 0.152346 5.40942C0.299049 4.42791 0.677373 3.49545 1.25601 2.68918C1.83465 1.88292 2.59697 1.22604 3.47989 0.7729C4.3628 0.319758 5.34094 0.0833806 6.33335 0.0833283ZM6.33335 1.74999C5.11777 1.74999 3.95199 2.23288 3.09244 3.09242C2.2329 3.95196 1.75002 5.11775 1.75002 6.33333C1.75002 7.5489 2.2329 8.71469 3.09244 9.57423C3.95199 10.4338 5.11777 10.9167 6.33335 10.9167C7.54893 10.9167 8.71472 10.4338 9.57426 9.57423C10.4338 8.71469 10.9167 7.5489 10.9167 6.33333C10.9167 5.11775 10.4338 3.95196 9.57426 3.09242C8.71472 2.23288 7.54893 1.74999 6.33335 1.74999Z"/>
</mask>
<path d="M6.33335 0.0833283C7.49833 0.0832814 8.64014 0.40884 9.62992 1.02326C10.6197 1.63769 11.4181 2.51652 11.9349 3.56058C12.4517 4.60464 12.6665 5.77238 12.5549 6.932C12.4433 8.09163 12.0098 9.19698 11.3034 10.1233L15.2559 14.0775C15.4053 14.2275 15.4921 14.4287 15.4985 14.6403C15.505 14.8519 15.4307 15.0581 15.2906 15.2169C15.1506 15.3757 14.9554 15.4752 14.7446 15.4953C14.5339 15.5154 14.3233 15.4545 14.1559 15.325L14.0775 15.2558L10.1234 11.3033C9.33418 11.9051 8.41307 12.3102 7.43622 12.4853C6.45937 12.6604 5.45487 12.6003 4.50585 12.3101C3.55683 12.0198 2.69056 11.5078 1.97873 10.8163C1.2669 10.1248 0.72997 9.27371 0.412373 8.33348C0.0947765 7.39326 0.00564218 6.39093 0.152346 5.40942C0.299049 4.42791 0.677373 3.49545 1.25601 2.68918C1.83465 1.88292 2.59697 1.22604 3.47989 0.7729C4.3628 0.319758 5.34094 0.0833806 6.33335 0.0833283ZM6.33335 1.74999C5.11777 1.74999 3.95199 2.23288 3.09244 3.09242C2.2329 3.95196 1.75002 5.11775 1.75002 6.33333C1.75002 7.5489 2.2329 8.71469 3.09244 9.57423C3.95199 10.4338 5.11777 10.9167 6.33335 10.9167C7.54893 10.9167 8.71472 10.4338 9.57426 9.57423C10.4338 8.71469 10.9167 7.5489 10.9167 6.33333C10.9167 5.11775 10.4338 3.95196 9.57426 3.09242C8.71472 2.23288 7.54893 1.74999 6.33335 1.74999Z" fill="white"/>
<path d="M11.3034 10.1233L7.72513 7.39453L5.33971 10.5225L8.1207 13.3046L11.3034 10.1233ZM15.2559 14.0775L18.4432 10.9009L18.4385 10.8962L15.2559 14.0775ZM14.1559 15.325L11.1774 18.6982L11.2873 18.7952L11.4032 18.8849L14.1559 15.325ZM14.0775 15.2558L10.8962 18.4385L10.9947 18.5369L11.099 18.629L14.0775 15.2558ZM10.1234 11.3033L13.3047 8.12068L10.5227 5.33988L7.39479 7.72493L10.1234 11.3033ZM6.33335 1.74999V-2.75001V1.74999ZM1.75002 6.33333H-2.74998H1.75002ZM6.33353 4.58333C6.65973 4.58331 6.97943 4.67447 7.25657 4.84651L12.0033 -2.79998C10.3008 -3.85679 8.33694 -4.41675 6.33317 -4.41667L6.33353 4.58333ZM7.25657 4.84651C7.53371 5.01855 7.75725 5.26462 7.90196 5.55696L15.9678 1.5642C15.0789 -0.231585 13.7057 -1.74317 12.0033 -2.79998L7.25657 4.84651ZM7.90196 5.55696C8.04667 5.8493 8.1068 6.17626 8.07555 6.50096L17.0342 7.36305C17.2261 5.36849 16.8568 3.35999 15.9678 1.5642L7.90196 5.55696ZM8.07555 6.50096C8.04431 6.82565 7.92294 7.13515 7.72513 7.39453L14.8816 12.8521C16.0967 11.2588 16.8422 9.3576 17.0342 7.36305L8.07555 6.50096ZM8.1207 13.3046L12.0732 17.2588L18.4385 10.8962L14.486 6.94202L8.1207 13.3046ZM12.0685 17.2541C11.4109 16.5942 11.0291 15.7088 11.0006 14.7777L19.9964 14.503C19.9551 13.1486 19.3998 11.8607 18.4432 10.9009L12.0685 17.2541ZM11.0006 14.7777C10.9722 13.8465 11.2993 12.9395 11.9154 12.2407L18.6659 18.1931C19.5621 17.1767 20.0378 15.8574 19.9964 14.503L11.0006 14.7777ZM11.9154 12.2407C12.5315 11.542 13.3905 11.1039 14.3179 11.0156L15.1714 19.975C16.5203 19.8465 17.7697 19.2094 18.6659 18.1931L11.9154 12.2407ZM14.3179 11.0156C15.2452 10.9273 16.1715 11.1952 16.9085 11.7651L11.4032 18.8849C12.4752 19.7138 13.8225 20.1035 15.1714 19.975L14.3179 11.0156ZM17.1343 11.9518L17.056 11.8826L11.099 18.629L11.1774 18.6982L17.1343 11.9518ZM17.2588 12.0732L13.3047 8.12068L6.94204 14.486L10.8962 18.4385L17.2588 12.0732ZM7.39479 7.72493C7.17382 7.89342 6.91591 8.00687 6.64239 8.05588L8.23005 16.9147C9.91023 16.6136 11.4945 15.9167 12.8519 14.8817L7.39479 7.72493ZM6.64239 8.05588C6.36887 8.1049 6.08762 8.08808 5.82189 8.00682L3.18981 16.6133C4.82213 17.1125 6.54987 17.2159 8.23005 16.9147L6.64239 8.05588ZM5.82189 8.00682C5.55616 7.92555 5.31361 7.78218 5.11429 7.58856L-1.15684 14.044C0.0675109 15.2334 1.55749 16.1141 3.18981 16.6133L5.82189 8.00682ZM5.11429 7.58856C4.91498 7.39493 4.76464 7.15663 4.67571 6.89337L-3.85097 9.7736C-3.3047 11.3908 -2.38119 12.8546 -1.15684 14.044L5.11429 7.58856ZM4.67571 6.89337C4.58679 6.63011 4.56183 6.34946 4.60291 6.07463L-4.29821 4.74421C-4.55055 6.4324 -4.39723 8.15642 -3.85097 9.7736L4.67571 6.89337ZM4.60291 6.07463C4.64398 5.79981 4.74991 5.53872 4.91193 5.31297L-2.39991 0.0654005C-3.39517 1.45217 -4.04589 3.05601 -4.29821 4.74421L4.60291 6.07463ZM4.91193 5.31297C5.07395 5.08721 5.2874 4.90329 5.53462 4.77641L1.42516 -3.23061C-0.0934637 -2.4512 -1.40465 -1.32137 -2.39991 0.0654005L4.91193 5.31297ZM5.53462 4.77641C5.78183 4.64953 6.05571 4.58334 6.33359 4.58333L6.33311 -4.41667C4.62616 -4.41658 2.94377 -4.01001 1.42516 -3.23061L5.53462 4.77641ZM6.33335 -2.75001C3.9243 -2.75001 1.61392 -1.79301 -0.0895362 -0.0895581L6.27443 6.2744C6.29005 6.25877 6.31125 6.25 6.33335 6.25V-2.75001ZM-0.0895362 -0.0895581C-1.79299 1.6139 -2.74998 3.92428 -2.74998 6.33333H6.25002C6.25002 6.31123 6.2588 6.29003 6.27443 6.2744L-0.0895362 -0.0895581ZM-2.74998 6.33333C-2.74998 8.74238 -1.79299 11.0528 -0.0895362 12.7562L6.27443 6.39225C6.2588 6.37663 6.25002 6.35543 6.25002 6.33333H-2.74998ZM-0.0895362 12.7562C1.61392 14.4597 3.9243 15.4167 6.33335 15.4167V6.41666C6.31125 6.41666 6.29005 6.40788 6.27443 6.39225L-0.0895362 12.7562ZM6.33335 15.4167C8.7424 15.4167 11.0528 14.4597 12.7562 12.7562L6.39228 6.39225C6.37665 6.40788 6.35545 6.41666 6.33335 6.41666V15.4167ZM12.7562 12.7562C14.4597 11.0528 15.4167 8.74238 15.4167 6.33333H6.41668C6.41668 6.35543 6.4079 6.37663 6.39228 6.39225L12.7562 12.7562ZM15.4167 6.33333C15.4167 3.92428 14.4597 1.6139 12.7562 -0.0895581L6.39228 6.2744C6.4079 6.29003 6.41668 6.31123 6.41668 6.33333H15.4167ZM12.7562 -0.0895581C11.0528 -1.79301 8.7424 -2.75001 6.33335 -2.75001V6.25C6.35545 6.25 6.37665 6.25877 6.39228 6.2744L12.7562 -0.0895581Z" fill="white" mask="url(#path-1-inside-1)"/>
</svg>
