<svg width="8" height="16" viewBox="0 0 8 16" fill="none" xmlns="http://www.w3.org/2000/svg">
<path d="M4.00048 1.08333L4 1.08333C3.11346 1.08592 2.25933 1.41693 1.60258 2.01243C0.945822 2.60793 0.533033 3.42568 0.443937 4.30773C0.354841 5.18978 0.595759 6.07356 1.12016 6.78837C1.60407 7.44798 2.29769 7.92053 3.08406 8.13088V14C3.08406 14.2431 3.18064 14.4763 3.35255 14.6482C3.52446 14.8201 3.75761 14.9167 4.00073 14.9167C4.24384 14.9167 4.477 14.8201 4.64891 14.6482C4.82082 14.4763 4.91739 14.2431 4.91739 14V8.13165C5.70626 7.92374 6.40285 7.45205 6.88914 6.79192C7.41618 6.07645 7.65858 5.19067 7.56927 4.30654C7.47996 3.42241 7.06532 2.603 6.40585 2.00738C5.74637 1.41176 4.88911 1.08244 4.00048 1.08333ZM4.67042 6.28345C4.4581 6.3714 4.23054 6.41666 4.00073 6.41666C3.5366 6.41666 3.09148 6.23229 2.76329 5.9041C2.4351 5.57591 2.25073 5.13079 2.25073 4.66666C2.25073 4.20253 2.4351 3.75742 2.76329 3.42923C3.09148 3.10104 3.5366 2.91666 4.00073 2.91666C4.23054 2.91666 4.4581 2.96193 4.67042 3.04987C4.88274 3.13782 5.07566 3.26672 5.23816 3.42923C5.40067 3.59173 5.52957 3.78465 5.61752 3.99697C5.70546 4.20929 5.75073 4.43685 5.75073 4.66666C5.75073 4.89648 5.70546 5.12404 5.61752 5.33636C5.52957 5.54868 5.40067 5.7416 5.23816 5.9041C5.07566 6.0666 4.88274 6.19551 4.67042 6.28345Z" fill="#252525" stroke="#252525" stroke-width="0.5"/>
</svg>
